<svg width="36" height="34" viewBox="0 0 36 34" fill="none" xmlns="http://www.w3.org/2000/svg">
<path d="M12.25 0.1875C11.1081 0.193542 10.0147 0.649833 9.20728 1.45728C8.39983 2.26472 7.94354 3.35812 7.9375 4.5C7.9375 5.006 8.04483 5.48325 8.20583 5.9375H0.75V14.5625H2.1875V33.25H33.8125V14.5625H35.25V5.9375H27.7942C27.9552 5.48325 28.0625 5.006 28.0625 4.5C28.0565 3.35812 27.6002 2.26472 26.7927 1.45728C25.9853 0.649833 24.8919 0.193542 23.75 0.1875C21.2334 0.1875 19.5276 2.0965 18.4025 3.69117C18.253 3.90392 18.1342 4.11283 18 4.31983C17.8658 4.11283 17.747 3.90392 17.5975 3.69117C16.4705 2.0965 14.7647 0.1875 12.25 0.1875ZM12.25 3.0625C13.1489 3.0625 14.3162 4.0285 15.2151 5.30883C15.4336 5.62317 15.401 5.64042 15.5735 5.9375H12.25C12.0603 5.94088 11.8719 5.906 11.6959 5.83496C11.52 5.76391 11.3602 5.65815 11.226 5.52399C11.0919 5.38982 10.9861 5.23001 10.915 5.05408C10.844 4.87815 10.8091 4.6897 10.8125 4.5C10.8125 3.68542 11.4354 3.0625 12.25 3.0625ZM23.75 3.0625C24.5646 3.0625 25.1875 3.68542 25.1875 4.5C25.1875 5.31458 24.5646 5.9375 23.75 5.9375H20.4265C20.599 5.64042 20.5664 5.62317 20.7849 5.30883C21.6838 4.0285 22.8511 3.0625 23.75 3.0625ZM3.625 8.8125H32.375V11.6875H19.4375V10.25H16.5625V11.6875H3.625V8.8125ZM5.0625 14.5625H30.9375V30.375H19.4375V16H16.5625V30.375H5.0625V14.5625Z" fill="white"/>
</svg>
